# xmcd CD database file
#
# Track frame offsets:
#	150
#	10195
#	20460
#	32082
#	44670
#	57660
#	66797
#	81687
#	97995
#	114540
#	129990
#	143935
#	158697
#	173450
#	191340
#	209285
#	222267
#	234145
#	248675
#	262715
#
# Disc length: 3682 seconds
#
# Revision: 5
# Processed by: cddbd v1.5.2PL0 Copyright (c) Steve Scherf et al.
# Submitted via: CDex 1.70beta3
#
DISCID=0b0e6014
DTITLE=The Byrds - Sweetheart Of The Rodeo Legacy Edition
DYEAR=2003
DGENRE=Country Rock
TTITLE0=Sum Up Broke (The International Submarine Band)
TTITLE1=One Day Week (The International Submarine Band)
TTITLE2=Truck Drivin' Man (The International Submarine Band)
TTITLE3=Blue Eyes (The International Submarine Band)
TTITLE4=Luxury Liner (The International Submarine Band)
TTITLE5=Strong Boy (The International Submarine Band)
TTITLE6=Lazy Days (Alternate Version)
TTITLE7=Pretty Polly (Alternate Version)
TTITLE8=Hickory Wind (Alternate Nashville Version Take8／Gram Parsons Vocal)
TTITLE9=The Christian Life (Rehearsal Version Take7／Gram Parsons Vocal)
TTITLE10=The Christian Life (Rehearsal Version Take8／Gram Parsons Vocal)
TTITLE11=Life In Prison (Rehearsal Version Take1&2／Gram Parsons Vocal)
TTITLE12=Life In Prison (Rehearsal Version Take3&4／Gram Parsons Vocal)
TTITLE13=One Hundred Years From Now (Rehearsal Version Take12&13／Gram Parsons Vocal)
TTITLE14=One Hundred Years From Now (Rehearsal Version Take14&15／Gram Parsons Vocal)
TTITLE15=You're Still On My Mind (Rehearsal Version Take13／Gram Parsons Vocal)
TTITLE16=You're Still On My Mind (Rehearsal Version Take48／Gram Parsons Vocal)
TTITLE17=All I Have Are Memories (Alternate Instrumental Take17)
TTITLE18=All I Have Are Memories (Alternate Instrumental Take21)
TTITLE19=Blue Canadian Rockies (Rehearsal Version Take14)
EXTD=YEAR: 2003
EXTT0=
EXTT1=
EXTT2=
EXTT3=
EXTT4=
EXTT5=
EXTT6=
EXTT7=
EXTT8=
EXTT9=
EXTT10=
EXTT11=
EXTT12=
EXTT13=
EXTT14=
EXTT15=
EXTT16=
EXTT17=
EXTT18=
EXTT19=
PLAYORDER=
